# xmcd CD database file
#
# Track frame offsets:
#	182
#	14925
#	33790
#	45970
#	64082
#	83477
#	100970
#	117992
#	133562
#	153582
#
# Disc length: 2276 seconds
#
# Revision: 8
# Processed by: cddbd v1.5.1PL0 Copyright (c) Steve Scherf et al.
# Submitted via: CDex 1.51
#
DISCID=7908e20a
DTITLE=Bryan White - The Right Place
DYEAR=1997
DGENRE=Country
TTITLE0=Love Is The Right Place
TTITLE1=What Did I Do (To Deserve You)
TTITLE2=Never Get Around To It
TTITLE3=Leave My Heart Out Of This
TTITLE4=The Natural Thing
TTITLE5=One Small Miracle
TTITLE6=Tree Of Hearts
TTITLE7=We Could Have Been
TTITLE8=Bad Day To Let You Go
TTITLE9=Call Me Crazy
EXTD=YEAR: 1997
EXTT0=
EXTT1=
EXTT2=
EXTT3=
EXTT4=
EXTT5=
EXTT6=
EXTT7=
EXTT8=
EXTT9=
PLAYORDER=
